<svg width="25" height="24" viewBox="0 0 25 24" fill="none" xmlns="http://www.w3.org/2000/svg">
<mask id="mask0_3504_371" style="mask-type:luminance" maskUnits="userSpaceOnUse" x="2" y="6" width="21" height="17">
<path fill-rule="evenodd" clip-rule="evenodd" d="M2.6687 6.5401H22.2546V22.7217H2.6687V6.5401Z" fill="white"/>
</mask>
<g mask="url(#mask0_3504_371)">
<path fill-rule="evenodd" clip-rule="evenodd" d="M16.6292 22.7221H8.28117C6.13817 22.7221 4.64517 22.1971 3.71617 21.1181C2.78317 20.0361 2.47117 18.4131 2.78917 16.2951L3.56517 10.2691C4.07517 7.5061 5.94017 6.5401 7.38417 6.5401H17.5632C19.0132 6.5401 20.7762 7.5031 21.3712 10.2041L22.1602 16.3111C22.4432 18.2821 22.0892 19.8631 21.1062 20.9971C20.1282 22.1251 18.5802 22.7221 16.6292 22.7221V22.7221Z" fill="#C67C4E"/>
</g>
<path fill-rule="evenodd" clip-rule="evenodd" d="M16.7665 7.82031C16.3525 7.82031 16.0165 7.48431 16.0165 7.07031C16.0165 5.10131 14.4145 3.50031 12.4465 3.50031H12.4315C11.4905 3.50031 10.5735 3.87931 9.90848 4.54031C9.24048 5.20531 8.85748 6.12831 8.85748 7.07031C8.85748 7.48431 8.52148 7.82031 8.10748 7.82031C7.69348 7.82031 7.35748 7.48431 7.35748 7.07031C7.35748 5.73131 7.90148 4.42231 8.84948 3.47731C9.79448 2.53831 11.0975 2.00031 12.4285 2.00031H12.4495C15.2425 2.00031 17.5165 4.27431 17.5165 7.07031C17.5165 7.48431 17.1805 7.82031 16.7665 7.82031" fill="#C67C4E"/>
<path fill-rule="evenodd" clip-rule="evenodd" d="M15.412 12.3242H15.366C14.952 12.3242 14.616 11.9882 14.616 11.5742C14.616 11.1602 14.952 10.8242 15.366 10.8242C15.78 10.8242 16.139 11.1602 16.139 11.5742C16.139 11.9882 15.826 12.3242 15.412 12.3242" fill="#F6EBE4"/>
<path fill-rule="evenodd" clip-rule="evenodd" d="M9.58089 12.3242H9.53589C9.12189 12.3242 8.78589 11.9882 8.78589 11.5742C8.78589 11.1602 9.12189 10.8242 9.53589 10.8242C9.94989 10.8242 10.3089 11.1602 10.3089 11.5742C10.3089 11.9882 9.99489 12.3242 9.58089 12.3242" fill="#F6EBE4"/>
</svg>
