<svg width="29" height="31" viewBox="0 0 29 31" fill="none" xmlns="http://www.w3.org/2000/svg">
<g filter="url(#filter0_d_418_850)">
<mask id="mask0_418_850" style="mask-type:luminance" maskUnits="userSpaceOnUse" x="16" y="2" width="9" height="9">
<path fill-rule="evenodd" clip-rule="evenodd" d="M16.354 2.00031H24.893V10.5331H16.354V2.00031Z" fill="white"/>
</mask>
<g mask="url(#mask0_418_850)">
<path fill-rule="evenodd" clip-rule="evenodd" d="M24.1427 10.5331C23.7657 10.5331 23.4417 10.2501 23.3987 9.86712C23.0197 6.49112 20.3977 3.87112 17.0207 3.49612C16.6097 3.45012 16.3127 3.08012 16.3587 2.66812C16.4037 2.25712 16.7707 1.95412 17.1867 2.00612C21.2647 2.45912 24.4317 5.62212 24.8887 9.69912C24.9347 10.1111 24.6387 10.4821 24.2277 10.5281C24.1997 10.5311 24.1707 10.5331 24.1427 10.5331Z" fill="black"/>
</g>
<path fill-rule="evenodd" clip-rule="evenodd" d="M20.6026 10.5439C20.2506 10.5439 19.9376 10.2959 19.8676 9.93791C19.5796 8.45791 18.4386 7.31691 16.9606 7.02991C16.5536 6.95091 16.2886 6.55791 16.3676 6.15091C16.4466 5.74391 16.8466 5.47791 17.2466 5.55791C19.3276 5.96191 20.9346 7.56791 21.3396 9.64991C21.4186 10.0579 21.1536 10.4509 20.7476 10.5299C20.6986 10.5389 20.6506 10.5439 20.6026 10.5439Z" fill="black"/>
<path fill-rule="evenodd" clip-rule="evenodd" d="M5.28872 4.08785L5.36127 4.01204C7.28869 2.08444 8.54385 1.57351 9.88307 2.34362C10.2683 2.56515 10.6295 2.87523 11.1205 3.37401L12.6269 4.93603C13.4589 5.84393 13.6481 6.71478 13.3772 7.73465L13.3398 7.86967L13.2984 8.00392L13.097 8.59474C12.666 9.91972 12.846 10.6673 14.3795 12.2004C15.9742 13.7947 16.7186 13.9251 18.1457 13.4264L18.4001 13.338L18.7077 13.2381L18.8423 13.2007C19.9263 12.9115 20.842 13.1423 21.8132 14.1128L23.0269 15.2852L23.3842 15.6366C23.7803 16.0405 24.0421 16.3606 24.2355 16.6989C25.0008 18.0377 24.4893 19.2921 22.5063 21.2677L22.3177 21.4589C22.0216 21.7442 21.745 21.9486 21.3386 22.1416C20.6565 22.4655 19.8506 22.5876 18.9142 22.4573C16.6067 22.1364 13.6802 20.3158 9.97188 16.6085C9.67002 16.3067 9.3809 16.0107 9.10425 15.7205L8.56748 15.1476C3.53762 9.68285 3.09389 6.32588 5.15518 4.2205L5.28872 4.08785ZM9.90641 4.28093C9.58062 3.95973 9.34396 3.76394 9.13532 3.64396C8.67379 3.37856 8.1755 3.49074 7.25329 4.28448L6.96353 4.54334C6.91299 4.59 6.86129 4.63843 6.80838 4.68868L6.47611 5.01231L6.44617 5.04972L6.22091 5.27603C5.67656 5.83204 5.41871 6.51064 5.6409 7.67767C6.00551 9.59269 7.67442 12.1905 11.0324 15.5477C14.5313 19.0456 17.1972 20.7041 19.1208 20.9716C20.2422 21.1276 20.8142 20.856 21.3975 20.2584L21.8424 19.8095C22.051 19.5912 22.2292 19.3933 22.3797 19.2126L22.585 18.9539C23.1097 18.2551 23.1576 17.8358 22.9332 17.4433C22.8479 17.2939 22.7237 17.1302 22.5429 16.93L22.2977 16.671L22.1525 16.5258L20.6213 15.0472C20.1096 14.5753 19.7599 14.5084 19.229 14.65L19.0757 14.6941L18.4414 14.9094C16.6013 15.5037 15.2738 15.2155 13.3189 13.2612C11.2943 11.237 11.0568 9.88537 11.7352 7.93917L11.7787 7.81411L11.8991 7.45153L11.9582 7.22043C12.0631 6.71746 11.9434 6.36677 11.4027 5.82601C11.3804 5.80375 11.3555 5.77866 11.3285 5.7512L9.90641 4.28093Z" fill="black"/>
</g>
<defs>
<filter id="filter0_d_418_850" x="-2" y="0" width="32" height="32" filterUnits="userSpaceOnUse" color-interpolation-filters="sRGB">
<feFlood flood-opacity="0" result="BackgroundImageFix"/>
<feColorMatrix in="SourceAlpha" type="matrix" values="0 0 0 0 0 0 0 0 0 0 0 0 0 0 0 0 0 0 127 0" result="hardAlpha"/>
<feOffset dy="4"/>
<feGaussianBlur stdDeviation="2"/>
<feComposite in2="hardAlpha" operator="out"/>
<feColorMatrix type="matrix" values="0 0 0 0 0 0 0 0 0 0 0 0 0 0 0 0 0 0 0.25 0"/>
<feBlend mode="normal" in2="BackgroundImageFix" result="effect1_dropShadow_418_850"/>
<feBlend mode="normal" in="SourceGraphic" in2="effect1_dropShadow_418_850" result="shape"/>
</filter>
</defs>
</svg>
