<svg width="25" height="24" viewBox="0 0 25 24" fill="none" xmlns="http://www.w3.org/2000/svg">
<mask id="mask0_3504_363" style="mask-type:luminance" maskUnits="userSpaceOnUse" x="2" y="2" width="22" height="21">
<path fill-rule="evenodd" clip-rule="evenodd" d="M2.55566 2.99988H23.0282V22.5009H2.55566V2.99988Z" fill="white"/>
</mask>
<g mask="url(#mask0_3504_363)">
<path fill-rule="evenodd" clip-rule="evenodd" d="M12.7934 22.501C12.6694 22.501 12.5464 22.471 12.4344 22.41C12.1214 22.239 4.74838 18.175 2.95138 12.581C2.95038 12.581 2.95038 12.58 2.95038 12.58C1.82238 9.058 3.07838 4.632 7.13338 3.325C9.03738 2.709 11.1124 2.98 12.7904 4.039C14.4164 3.011 16.5764 2.727 18.4424 3.325C22.5014 4.634 23.7614 9.059 22.6344 12.58C20.8954 18.11 13.4684 22.235 13.1534 22.408C13.0414 22.47 12.9174 22.501 12.7934 22.501" fill="#C67C4E"/>
</g>
<path fill-rule="evenodd" clip-rule="evenodd" d="M18.7094 10.6249C18.3224 10.6249 17.9944 10.3279 17.9624 9.9359C17.8964 9.1139 17.3464 8.4199 16.5634 8.1669C16.1684 8.0389 15.9524 7.6159 16.0794 7.2229C16.2084 6.8289 16.6274 6.6149 17.0234 6.7389C18.3864 7.1799 19.3414 8.3869 19.4584 9.8139C19.4914 10.2269 19.1844 10.5889 18.7714 10.6219C18.7504 10.6239 18.7304 10.6249 18.7094 10.6249" fill="#F6EBE4"/>
</svg>
