<svg width="24" height="25" viewBox="0 0 24 25" fill="none" xmlns="http://www.w3.org/2000/svg">
<mask id="mask0_3504_395" style="mask-type:luminance" maskUnits="userSpaceOnUse" x="2" y="1" width="21" height="23">
<path fill-rule="evenodd" clip-rule="evenodd" d="M2 1.50024H22.4998V23.0052H2V1.50024Z" fill="white"/>
</mask>
<g mask="url(#mask0_3504_395)">
<path fill-rule="evenodd" clip-rule="evenodd" d="M18.2768 23.0054H16.3528C15.2508 22.9794 14.4008 22.1144 14.4008 21.0364V17.9604C14.4008 17.5914 14.0938 17.2914 13.7168 17.2914H10.8308C10.4618 17.2934 10.1568 17.5944 10.1568 17.9604V21.0264C10.1568 21.1014 10.1468 21.1734 10.1258 21.2414C10.0178 22.2314 9.17182 23.0054 8.14682 23.0054H6.22282C3.89382 23.0054 1.99982 21.1264 1.99982 18.8174V10.1034C2.00982 9.10937 2.46782 8.19937 3.25882 7.60037L9.79382 2.35537C11.2328 1.21537 13.2378 1.21537 14.6738 2.35337L21.2558 7.60337C22.0288 8.19237 22.4868 9.10037 22.4998 10.0824V18.8174C22.4998 21.1264 20.6058 23.0054 18.2768 23.0054V23.0054Z" fill="#C67C4E"/>
</g>
</svg>
