<svg width="24" height="24" viewBox="0 0 24 24" fill="none" xmlns="http://www.w3.org/2000/svg">
<mask id="mask0_3504_381" style="mask-type:luminance" maskUnits="userSpaceOnUse" x="3" y="1" width="19" height="18">
<path fill-rule="evenodd" clip-rule="evenodd" d="M3.00006 1H21.497V18.348H3.00006V1Z" fill="white"/>
</mask>
<g mask="url(#mask0_3504_381)">
<path fill-rule="evenodd" clip-rule="evenodd" d="M12.2471 18.348C7.57107 18.348 3.34507 18.018 3.00007 14.035C2.99707 12.387 3.50007 11.549 3.94407 10.811C4.39307 10.063 4.81607 9.358 4.81607 7.695C4.81607 4.462 7.80207 1 12.2471 1C16.6921 1 19.6781 4.462 19.6781 7.695C19.6781 9.358 20.1011 10.063 20.5501 10.811C20.9941 11.549 21.4971 12.387 21.4971 13.971C21.1481 18.018 16.9231 18.348 12.2471 18.348" fill="#C67C4E"/>
</g>
<path fill-rule="evenodd" clip-rule="evenodd" d="M12.1983 22.5H12.1963C11.0753 22.499 10.0143 22.005 9.20927 21.108C8.93227 20.801 8.95727 20.326 9.26527 20.05C9.57327 19.772 10.0473 19.797 10.3243 20.106C10.8423 20.683 11.5073 21 12.1973 21H12.1983C12.8913 21 13.5593 20.683 14.0783 20.105C14.3563 19.798 14.8303 19.773 15.1373 20.05C15.4453 20.327 15.4703 20.802 15.1933 21.109C14.3853 22.006 13.3223 22.5 12.1983 22.5" fill="#C67C4E"/>
</svg>
